<svg width="128" height="128" viewBox="0 0 128 128" fill="none" xmlns="http://www.w3.org/2000/svg">
<path d="M115.16 12.69C106.97 4.5 96.09 0 84.51 0C72.93 0 62.05 4.51001 53.86 12.7C47.46 19.1 43.31 27.15 41.8 35.89C41.65 36.77 41.52 37.66 41.43 38.56C41.33 39.44 41.26 40.33 41.22 41.22C41.18 41.93 41.17 42.64 41.17 43.36V49.25V51.9V54.55V86.7H73.32H75.97H78.62C78.66 85.98 78.69 85.25 78.69 84.51V78.69H76.04H49.18V54.47V49.1801V43.35C49.18 42.61 49.2 41.89 49.25 41.16C49.3 40.27 49.39 39.39 49.51 38.51C49.63 37.61 49.79 36.73 49.98 35.86C51.43 29.11 54.83 23.0801 59.54 18.3701C65.94 11.9701 74.77 8.01001 84.51 8.01001C103.99 8.01001 119.84 23.86 119.84 43.34C119.84 53.08 115.88 61.91 109.48 68.31C104.77 73.02 98.74 76.4101 91.99 77.8701V84.5C91.99 85.02 91.99 85.54 91.97 86.05C100.71 84.54 108.76 80.3901 115.16 73.9901C123.35 65.8 127.86 54.92 127.86 43.34C127.86 31.76 123.35 20.88 115.16 12.69Z" fill="url(#paint0_linear_102_3)"/>
<path d="M49.18 48.83H78.69V73.05V84.16C78.69 84.89 78.67 85.62 78.62 86.35C78.57 87.24 78.48 88.12 78.36 89C78.24 89.89 78.09 90.77 77.89 91.64C76.43 98.39 73.04 104.42 68.33 109.14C61.93 115.54 53.1 119.5 43.36 119.5C23.88 119.5 8.03003 103.65 8.03003 84.17C8.03003 74.43 12 65.6 18.39 59.2C23.1 54.49 29.14 51.1 35.88 49.64V43.02C35.88 42.5 35.88 41.98 35.9 41.47C27.16 42.97 19.11 47.13 12.7 53.53C4.51001 61.72 0 72.6 0 84.18C0 95.76 4.51 106.64 12.69 114.83C20.88 123.02 31.76 127.53 43.34 127.53C54.92 127.53 65.8 123.02 73.99 114.83C81.67 107.15 86.11 97.09 86.63 86.32C86.65 85.97 86.66 85.63 86.67 85.28C86.67 85.09 86.67 84.91 86.67 84.72C86.67 84.54 86.67 84.36 86.67 84.19V40.84H54.52H51.87H49.22C49.18 41.56 49.15 42.29 49.15 43.03V48.86L49.18 48.83Z" fill="url(#paint1_linear_102_3)"/>
<defs>
<linearGradient id="paint0_linear_102_3" x1="41.16" y1="43.35" x2="127.85" y2="43.35" gradientUnits="userSpaceOnUse">
<stop stop-color="#0A0C35"/>
<stop offset="1" stop-color="#2DF4F2"/>
</linearGradient>
<linearGradient id="paint1_linear_102_3" x1="43.335" y1="40.84" x2="43" y2="107.5" gradientUnits="userSpaceOnUse">
<stop stop-color="#F3E715"/>
<stop offset="1" stop-color="#27785F"/>
</linearGradient>
</defs>
</svg>
